{
	"asset":{
		"generator":"Khronos glTF Blender I/O v5.0.21",
		"version":"2.0"
	},
	"extensionsUsed":[
		"KHR_texture_transform"
	],
	"extensionsRequired":[
		"KHR_texture_transform"
	],
	"scene":0,
	"scenes":[
		{
			"name":"Scene",
			"nodes":[
				8,
				13,
				25,
				26,
				27,
				28,
				29,
				30
			]
		}
	],
	"nodes":[
		{
			"name":"Node_40"
		},
		{
			"mesh":0,
			"name":"Mesh_35"
		},
		{
			"mesh":1,
			"name":"Mesh_35.001",
			"translation":[
				0,
				0,
				-1.740203619003296
			]
		},
		{
			"mesh":2,
			"name":"Mesh_35.002",
			"translation":[
				0,
				0,
				2.8348350524902344
			]
		},
		{
			"mesh":3,
			"name":"Mesh_35.003",
			"translation":[
				0,
				0,
				-2.8613619804382324
			]
		},
		{
			"mesh":4,
			"name":"Mesh_35.004",
			"translation":[
				0,
				0,
				-1.4175467491149902
			]
		},
		{
			"children":[
				1,
				2,
				3,
				4,
				5
			],
			"name":"Node_5"
		},
		{
			"children":[
				0,
				6
			],
			"name":"Node_4"
		},
		{
			"children":[
				7
			],
			"name":"Node_2",
			"translation":[
				0,
				0,
				2.559081554412842
			]
		},
		{
			"mesh":5,
			"name":"Mesh_80.001",
			"translation":[
				0,
				0,
				-1.740203619003296
			]
		},
		{
			"children":[
				9
			],
			"name":"Node_86"
		},
		{
			"name":"Node_88"
		},
		{
			"name":"Node_90"
		},
		{
			"children":[
				10,
				11,
				12
			],
			"name":"Node_85",
			"translation":[
				0,
				0,
				2.559081554412842
			]
		},
		{
			"mesh":6,
			"name":"archibd _ Door lock _ P _ 1.003",
			"translation":[
				0,
				0,
				-1.740203619003296
			]
		},
		{
			"mesh":7,
			"name":"archibd _ Door lock _ P _ 2.001",
			"translation":[
				0,
				0,
				-1.740203619003296
			]
		},
		{
			"mesh":8,
			"name":"archibd _ Door lock _ P _ 3.003",
			"translation":[
				0,
				0,
				-1.740203619003296
			]
		},
		{
			"mesh":9,
			"name":"archibd _ Door lock _ P _ 4.003",
			"translation":[
				0,
				0,
				-1.740203619003296
			]
		},
		{
			"children":[
				14,
				15,
				16,
				17
			],
			"name":"archibd _ Door lock _ 2"
		},
		{
			"mesh":10,
			"name":"archibd _ Door lock _ P _ 1.002",
			"translation":[
				0,
				0,
				-1.740203619003296
			]
		},
		{
			"mesh":11,
			"name":"archibd _ Door lock _ P _ 3.002",
			"translation":[
				0,
				0,
				-1.740203619003296
			]
		},
		{
			"mesh":12,
			"name":"archibd _ Door lock _ P _ 4.002",
			"translation":[
				0,
				0,
				-1.740203619003296
			]
		},
		{
			"mesh":13,
			"name":"archibd _ Door lock _ P _ 5.001",
			"translation":[
				0,
				0,
				-1.740203619003296
			]
		},
		{
			"mesh":14,
			"name":"archibd _ Door lock _ P _ 6.001",
			"translation":[
				0,
				0,
				-1.740203619003296
			]
		},
		{
			"children":[
				19,
				20,
				21,
				22,
				23
			],
			"name":"archibd _ Door lock _ 3"
		},
		{
			"children":[
				18,
				24
			],
			"name":"archibd _ Flush Door Wooden _ 1#2",
			"translation":[
				0,
				0,
				2.559081554412842
			]
		},
		{
			"mesh":15,
			"name":"tttttt.001",
			"translation":[
				0.16544103622436523,
				-0.18353652954101562,
				-5.134807586669922
			]
		},
		{
			"mesh":16,
			"name":"ttttttt.001",
			"translation":[
				-2.231295585632324,
				-0.18353652954101562,
				-5.134807586669922
			]
		},
		{
			"mesh":17,
			"name":"tttt.001",
			"translation":[
				5.33270263671875,
				-0.18353652954101562,
				-5.134807586669922
			]
		},
		{
			"mesh":18,
			"name":"ttt.001",
			"translation":[
				2.6667349338531494,
				-0.18353652954101562,
				-5.134807586669922
			]
		},
		{
			"mesh":19,
			"name":"ttttttt.002",
			"translation":[
				-4.467630386352539,
				-0.18353652954101562,
				-5.134807586669922
			]
		}
	],
	"materials":[
		{
			"doubleSided":true,
			"name":"brown2",
			"pbrMetallicRoughness":{
				"baseColorTexture":{
					"extensions":{
						"KHR_texture_transform":{
							"offset":[
								0,
								0.6500000059604645
							],
							"scale":[
								0.3499999940395355,
								0.3499999940395355
							]
						}
					},
					"index":0
				},
				"metallicRoughnessTexture":{
					"extensions":{
						"KHR_texture_transform":{
							"offset":[
								0,
								0.6500000059604645
							],
							"scale":[
								0.3499999940395355,
								0.3499999940395355
							]
						}
					},
					"index":1
				}
			}
		},
		{
			"doubleSided":true,
			"name":"Baked_B_2",
			"pbrMetallicRoughness":{
				"baseColorTexture":{
					"index":2
				},
				"metallicRoughnessTexture":{
					"index":3
				}
			}
		},
		{
			"doubleSided":true,
			"name":"grey",
			"pbrMetallicRoughness":{
				"baseColorFactor":[
					0.054758332669734955,
					0.054758332669734955,
					0.054758332669734955,
					1
				],
				"metallicFactor":0.10000000149011612,
				"roughnessFactor":0.8999999761581421
			}
		},
		{
			"doubleSided":true,
			"name":"Blackhandle",
			"pbrMetallicRoughness":{
				"baseColorTexture":{
					"index":4
				},
				"metallicFactor":0.10000000149011612,
				"roughnessFactor":0.8999999761581421
			}
		},
		{
			"doubleSided":true,
			"name":"numberkey",
			"pbrMetallicRoughness":{
				"baseColorTexture":{
					"index":5
				},
				"metallicFactor":0.10000000149011612,
				"roughnessFactor":0.8999999761581421
			}
		},
		{
			"doubleSided":true,
			"name":"Archibd _ Brushed Matel _ 2",
			"pbrMetallicRoughness":{
				"baseColorTexture":{
					"index":6
				},
				"metallicFactor":0.10000000149011612,
				"roughnessFactor":0.8999999761581421
			}
		},
		{
			"doubleSided":true,
			"name":"Baked_B_4",
			"pbrMetallicRoughness":{
				"baseColorTexture":{
					"index":7
				},
				"metallicRoughnessTexture":{
					"index":8
				}
			}
		},
		{
			"doubleSided":true,
			"name":"Baked_B_3",
			"pbrMetallicRoughness":{
				"baseColorTexture":{
					"index":9
				},
				"metallicRoughnessTexture":{
					"index":10
				}
			}
		},
		{
			"doubleSided":true,
			"name":"Baked_B_6",
			"pbrMetallicRoughness":{
				"baseColorTexture":{
					"index":11
				},
				"metallicRoughnessTexture":{
					"index":12
				}
			}
		},
		{
			"doubleSided":true,
			"name":"Baked_B_5",
			"pbrMetallicRoughness":{
				"baseColorTexture":{
					"index":13
				},
				"metallicRoughnessTexture":{
					"index":14
				}
			}
		}
	],
	"meshes":[
		{
			"name":"Mesh_35",
			"primitives":[
				{
					"attributes":{
						"POSITION":0,
						"NORMAL":1,
						"TEXCOORD_0":2
					},
					"indices":3,
					"material":0
				}
			]
		},
		{
			"name":"Mesh_35.001",
			"primitives":[
				{
					"attributes":{
						"POSITION":4,
						"NORMAL":5,
						"TEXCOORD_0":6
					},
					"indices":3,
					"material":0
				}
			]
		},
		{
			"name":"Mesh_35.002",
			"primitives":[
				{
					"attributes":{
						"POSITION":7,
						"NORMAL":8,
						"TEXCOORD_0":9
					},
					"indices":3,
					"material":0
				}
			]
		},
		{
			"name":"Mesh_35.003",
			"primitives":[
				{
					"attributes":{
						"POSITION":10,
						"NORMAL":11,
						"TEXCOORD_0":12
					},
					"indices":3,
					"material":0
				}
			]
		},
		{
			"name":"Mesh_35.004",
			"primitives":[
				{
					"attributes":{
						"POSITION":13,
						"NORMAL":14,
						"TEXCOORD_0":15
					},
					"indices":3,
					"material":0
				}
			]
		},
		{
			"name":"Mesh_80.001",
			"primitives":[
				{
					"attributes":{
						"POSITION":16,
						"NORMAL":17,
						"TEXCOORD_0":18
					},
					"indices":19,
					"material":1
				},
				{
					"attributes":{
						"POSITION":20,
						"NORMAL":21,
						"TEXCOORD_0":22
					},
					"indices":23,
					"material":2
				}
			]
		},
		{
			"name":"Mesh_88.001",
			"primitives":[
				{
					"attributes":{
						"POSITION":24,
						"NORMAL":25,
						"TEXCOORD_0":26
					},
					"indices":27,
					"material":3
				}
			]
		},
		{
			"name":"Mesh_89.001",
			"primitives":[
				{
					"attributes":{
						"POSITION":28,
						"NORMAL":29,
						"TEXCOORD_0":30
					},
					"indices":31,
					"material":3
				},
				{
					"attributes":{
						"POSITION":32,
						"NORMAL":33,
						"TEXCOORD_0":34
					},
					"indices":35,
					"material":4
				}
			]
		},
		{
			"name":"Mesh_90.001",
			"primitives":[
				{
					"attributes":{
						"POSITION":36,
						"NORMAL":37,
						"TEXCOORD_0":38
					},
					"indices":39,
					"material":3
				}
			]
		},
		{
			"name":"Mesh_91.001",
			"primitives":[
				{
					"attributes":{
						"POSITION":40,
						"NORMAL":41,
						"TEXCOORD_0":42
					},
					"indices":43,
					"material":3
				}
			]
		},
		{
			"name":"Mesh_83.001",
			"primitives":[
				{
					"attributes":{
						"POSITION":44,
						"NORMAL":45,
						"TEXCOORD_0":46
					},
					"indices":47,
					"material":3
				}
			]
		},
		{
			"name":"Mesh_86.001",
			"primitives":[
				{
					"attributes":{
						"POSITION":48,
						"NORMAL":49,
						"TEXCOORD_0":50
					},
					"indices":51,
					"material":3
				}
			]
		},
		{
			"name":"Mesh_87.001",
			"primitives":[
				{
					"attributes":{
						"POSITION":52,
						"NORMAL":53,
						"TEXCOORD_0":54
					},
					"indices":55,
					"material":3
				}
			]
		},
		{
			"name":"Mesh_84.001",
			"primitives":[
				{
					"attributes":{
						"POSITION":56,
						"NORMAL":57,
						"TEXCOORD_0":58
					},
					"indices":59,
					"material":3
				}
			]
		},
		{
			"name":"Mesh_85.001",
			"primitives":[
				{
					"attributes":{
						"POSITION":60,
						"NORMAL":61,
						"TEXCOORD_0":62
					},
					"indices":63,
					"material":5
				}
			]
		},
		{
			"name":"Plane.004",
			"primitives":[
				{
					"attributes":{
						"POSITION":64,
						"NORMAL":65,
						"TEXCOORD_0":66
					},
					"indices":67,
					"material":6
				}
			]
		},
		{
			"name":"Plane.005",
			"primitives":[
				{
					"attributes":{
						"POSITION":68,
						"NORMAL":69,
						"TEXCOORD_0":70
					},
					"indices":67,
					"material":7
				}
			]
		},
		{
			"name":"Plane.006",
			"primitives":[
				{
					"attributes":{
						"POSITION":71,
						"NORMAL":72,
						"TEXCOORD_0":73
					},
					"indices":67,
					"material":8
				}
			]
		},
		{
			"name":"Plane.007",
			"primitives":[
				{
					"attributes":{
						"POSITION":74,
						"NORMAL":75,
						"TEXCOORD_0":76
					},
					"indices":67,
					"material":9
				}
			]
		},
		{
			"name":"Plane.008",
			"primitives":[
				{
					"attributes":{
						"POSITION":77,
						"NORMAL":78,
						"TEXCOORD_0":79
					},
					"indices":67,
					"material":1
				}
			]
		}
	],
	"textures":[
		{
			"sampler":0,
			"source":0
		},
		{
			"sampler":0,
			"source":1
		},
		{
			"sampler":0,
			"source":2
		},
		{
			"sampler":0,
			"source":3
		},
		{
			"sampler":0,
			"source":4
		},
		{
			"sampler":0,
			"source":5
		},
		{
			"sampler":0,
			"source":6
		},
		{
			"sampler":0,
			"source":7
		},
		{
			"sampler":0,
			"source":3
		},
		{
			"sampler":0,
			"source":8
		},
		{
			"sampler":0,
			"source":3
		},
		{
			"sampler":0,
			"source":9
		},
		{
			"sampler":0,
			"source":3
		},
		{
			"sampler":0,
			"source":10
		},
		{
			"sampler":0,
			"source":3
		}
	],
	"images":[
		{
			"mimeType":"image/jpeg",
			"name":"D482D6D448EFC533C2199D822F83B780147924",
			"uri":"D482D6D448EFC533C2199D822F83B780147924.jpg"
		},
		{
			"mimeType":"image/png",
			"name":"D482D6D448EFC533C2199D822F83B780147924",
			"uri":"D482D6D448EFC533C2199D822F83B780147924.png"
		},
		{
			"mimeType":"image/jpeg",
			"name":"brown2",
			"uri":"brown2.jpg"
		},
		{
			"mimeType":"image/png",
			"name":"roughnes",
			"uri":"roughnes.png"
		},
		{
			"mimeType":"image/png",
			"name":"Image_1",
			"uri":"Image_1.png"
		},
		{
			"mimeType":"image/png",
			"name":"Image_4",
			"uri":"Image_4.png"
		},
		{
			"mimeType":"image/png",
			"name":"Image_2",
			"uri":"Image_2.png"
		},
		{
			"mimeType":"image/jpeg",
			"name":"brown4",
			"uri":"brown4.jpg"
		},
		{
			"mimeType":"image/jpeg",
			"name":"brown3",
			"uri":"brown3.jpg"
		},
		{
			"mimeType":"image/jpeg",
			"name":"brown6",
			"uri":"brown6.jpg"
		},
		{
			"mimeType":"image/jpeg",
			"name":"brown5",
			"uri":"brown5.jpg"
		}
	],
	"accessors":[
		{
			"bufferView":0,
			"componentType":5126,
			"count":18,
			"max":[
				0.04394867271184921,
				0.025334835052490234,
				-0.22688719630241394
			],
			"min":[
				0.03394857048988342,
				5.598410623974814e-12,
				-0.2522219717502594
			],
			"type":"VEC3"
		},
		{
			"bufferView":1,
			"componentType":5126,
			"count":18,
			"type":"VEC3"
		},
		{
			"bufferView":2,
			"componentType":5126,
			"count":18,
			"type":"VEC2"
		},
		{
			"bufferView":3,
			"componentType":5123,
			"count":24,
			"type":"SCALAR"
		},
		{
			"bufferView":4,
			"componentType":5126,
			"count":18,
			"max":[
				0.04394867271184921,
				0.025334835052490234,
				-0.22688719630241394
			],
			"min":[
				0.03394857048988342,
				5.598410623974814e-12,
				-0.2522219717502594
			],
			"type":"VEC3"
		},
		{
			"bufferView":5,
			"componentType":5126,
			"count":18,
			"type":"VEC3"
		},
		{
			"bufferView":6,
			"componentType":5126,
			"count":18,
			"type":"VEC2"
		},
		{
			"bufferView":7,
			"componentType":5126,
			"count":18,
			"max":[
				0.04394867271184921,
				0.025334835052490234,
				-0.22688719630241394
			],
			"min":[
				0.03394857048988342,
				5.598410623974814e-12,
				-0.2522219717502594
			],
			"type":"VEC3"
		},
		{
			"bufferView":8,
			"componentType":5126,
			"count":18,
			"type":"VEC3"
		},
		{
			"bufferView":9,
			"componentType":5126,
			"count":18,
			"type":"VEC2"
		},
		{
			"bufferView":10,
			"componentType":5126,
			"count":18,
			"max":[
				0.04394867271184921,
				0.025334835052490234,
				-0.22688719630241394
			],
			"min":[
				0.03394857048988342,
				5.598410623974814e-12,
				-0.2522219717502594
			],
			"type":"VEC3"
		},
		{
			"bufferView":11,
			"componentType":5126,
			"count":18,
			"type":"VEC3"
		},
		{
			"bufferView":12,
			"componentType":5126,
			"count":18,
			"type":"VEC2"
		},
		{
			"bufferView":13,
			"componentType":5126,
			"count":18,
			"max":[
				0.04394867271184921,
				0.025334835052490234,
				-0.22688719630241394
			],
			"min":[
				0.03394857048988342,
				5.598410623974814e-12,
				-0.2522219717502594
			],
			"type":"VEC3"
		},
		{
			"bufferView":14,
			"componentType":5126,
			"count":18,
			"type":"VEC3"
		},
		{
			"bufferView":15,
			"componentType":5126,
			"count":18,
			"type":"VEC2"
		},
		{
			"bufferView":16,
			"componentType":5126,
			"count":2369,
			"max":[
				0.2169506698846817,
				2.5985000133514404,
				-8.678172167208997e-17
			],
			"min":[
				0.030934790149331093,
				0,
				-1.2208000421524048
			],
			"type":"VEC3"
		},
		{
			"bufferView":17,
			"componentType":5126,
			"count":2369,
			"type":"VEC3"
		},
		{
			"bufferView":18,
			"componentType":5126,
			"count":2369,
			"type":"VEC2"
		},
		{
			"bufferView":19,
			"componentType":5123,
			"count":3723,
			"type":"SCALAR"
		},
		{
			"bufferView":20,
			"componentType":5126,
			"count":20,
			"max":[
				0.09395584464073181,
				2.510000228881836,
				-0.19971489906311035
			],
			"min":[
				0.043932054191827774,
				0,
				-0.474059522151947
			],
			"type":"VEC3"
		},
		{
			"bufferView":21,
			"componentType":5126,
			"count":20,
			"type":"VEC3"
		},
		{
			"bufferView":22,
			"componentType":5126,
			"count":20,
			"type":"VEC2"
		},
		{
			"bufferView":23,
			"componentType":5123,
			"count":30,
			"type":"SCALAR"
		},
		{
			"bufferView":24,
			"componentType":5126,
			"count":324,
			"max":[
				0.04115999862551689,
				1.2053420543670654,
				-0.09623964875936508
			],
			"min":[
				0.03116000071167946,
				0.9083420038223267,
				-0.1532396525144577
			],
			"type":"VEC3"
		},
		{
			"bufferView":25,
			"componentType":5126,
			"count":324,
			"type":"VEC3"
		},
		{
			"bufferView":26,
			"componentType":5126,
			"count":324,
			"type":"VEC2"
		},
		{
			"bufferView":27,
			"componentType":5123,
			"count":642,
			"type":"SCALAR"
		},
		{
			"bufferView":28,
			"componentType":5126,
			"count":1826,
			"max":[
				0.032660000026226044,
				1.206842064857483,
				-0.0947396531701088
			],
			"min":[
				0.030300000682473183,
				0.906842052936554,
				-0.154739648103714
			],
			"type":"VEC3"
		},
		{
			"bufferView":29,
			"componentType":5126,
			"count":1826,
			"type":"VEC3"
		},
		{
			"bufferView":30,
			"componentType":5126,
			"count":1826,
			"type":"VEC2"
		},
		{
			"bufferView":31,
			"componentType":5123,
			"count":4170,
			"type":"SCALAR"
		},
		{
			"bufferView":32,
			"componentType":5126,
			"count":550,
			"max":[
				0.030300000682473183,
				1.1579281091690063,
				-0.10559994727373123
			],
			"min":[
				0.030300000682473183,
				1.1053413152694702,
				-0.14276951551437378
			],
			"type":"VEC3"
		},
		{
			"bufferView":33,
			"componentType":5126,
			"count":550,
			"type":"VEC3"
		},
		{
			"bufferView":34,
			"componentType":5126,
			"count":550,
			"type":"VEC2"
		},
		{
			"bufferView":35,
			"componentType":5123,
			"count":1566,
			"type":"SCALAR"
		},
		{
			"bufferView":36,
			"componentType":5126,
			"count":1691,
			"max":[
				0.010300000198185444,
				1.065405011177063,
				-0.11445998400449753
			],
			"min":[
				-2.7848140434896048e-16,
				1.0475654602050781,
				-0.22516866028308868
			],
			"type":"VEC3"
		},
		{
			"bufferView":37,
			"componentType":5126,
			"count":1691,
			"type":"VEC3"
		},
		{
			"bufferView":38,
			"componentType":5126,
			"count":1691,
			"type":"VEC2"
		},
		{
			"bufferView":39,
			"componentType":5123,
			"count":3228,
			"type":"SCALAR"
		},
		{
			"bufferView":40,
			"componentType":5126,
			"count":384,
			"max":[
				0.030300000682473183,
				1.0648419857025146,
				-0.11453273892402649
			],
			"min":[
				0.008299999870359898,
				1.0488420724868774,
				-0.13053274154663086
			],
			"type":"VEC3"
		},
		{
			"bufferView":41,
			"componentType":5126,
			"count":384,
			"type":"VEC3"
		},
		{
			"bufferView":42,
			"componentType":5126,
			"count":384,
			"type":"VEC2"
		},
		{
			"bufferView":43,
			"componentType":5123,
			"count":708,
			"type":"SCALAR"
		},
		{
			"bufferView":44,
			"componentType":5126,
			"count":324,
			"max":[
				0.07225999981164932,
				1.2053420543670654,
				-0.09623964875936508
			],
			"min":[
				0.06225999817252159,
				0.9083420038223267,
				-0.1532396525144577
			],
			"type":"VEC3"
		},
		{
			"bufferView":45,
			"componentType":5126,
			"count":324,
			"type":"VEC3"
		},
		{
			"bufferView":46,
			"componentType":5126,
			"count":324,
			"type":"VEC2"
		},
		{
			"bufferView":47,
			"componentType":5123,
			"count":642,
			"type":"SCALAR"
		},
		{
			"bufferView":48,
			"componentType":5126,
			"count":1691,
			"max":[
				0.10341999679803848,
				1.065405011177063,
				-0.11887380480766296
			],
			"min":[
				0.09312000125646591,
				1.0475654602050781,
				-0.22958248853683472
			],
			"type":"VEC3"
		},
		{
			"bufferView":49,
			"componentType":5126,
			"count":1691,
			"type":"VEC3"
		},
		{
			"bufferView":50,
			"componentType":5126,
			"count":1691,
			"type":"VEC2"
		},
		{
			"bufferView":51,
			"componentType":5123,
			"count":3228,
			"type":"SCALAR"
		},
		{
			"bufferView":52,
			"componentType":5126,
			"count":384,
			"max":[
				0.09511999785900116,
				1.0648419857025146,
				-0.11894655972719193
			],
			"min":[
				0.07311999797821045,
				1.0488420724868774,
				-0.1349465548992157
			],
			"type":"VEC3"
		},
		{
			"bufferView":53,
			"componentType":5126,
			"count":384,
			"type":"VEC3"
		},
		{
			"bufferView":54,
			"componentType":5126,
			"count":384,
			"type":"VEC2"
		},
		{
			"bufferView":55,
			"componentType":5123,
			"count":708,
			"type":"SCALAR"
		},
		{
			"bufferView":56,
			"componentType":5126,
			"count":1272,
			"max":[
				0.07311999797821045,
				1.206842064857483,
				-0.0947396531701088
			],
			"min":[
				0.07075999677181244,
				0.906842052936554,
				-0.154739648103714
			],
			"type":"VEC3"
		},
		{
			"bufferView":57,
			"componentType":5126,
			"count":1272,
			"type":"VEC3"
		},
		{
			"bufferView":58,
			"componentType":5126,
			"count":1272,
			"type":"VEC2"
		},
		{
			"bufferView":59,
			"componentType":5123,
			"count":2532,
			"type":"SCALAR"
		},
		{
			"bufferView":60,
			"componentType":5126,
			"count":660,
			"max":[
				0.08986285328865051,
				0.9980193376541138,
				-0.11717964708805084
			],
			"min":[
				0.07607462257146835,
				0.9828993082046509,
				-0.13229964673519135
			],
			"type":"VEC3"
		},
		{
			"bufferView":61,
			"componentType":5126,
			"count":660,
			"type":"VEC3"
		},
		{
			"bufferView":62,
			"componentType":5126,
			"count":660,
			"type":"VEC2"
		},
		{
			"bufferView":63,
			"componentType":5123,
			"count":1206,
			"type":"SCALAR"
		},
		{
			"bufferView":64,
			"componentType":5126,
			"count":4,
			"max":[
				1,
				0,
				1
			],
			"min":[
				-1,
				0,
				-1
			],
			"type":"VEC3"
		},
		{
			"bufferView":65,
			"componentType":5126,
			"count":4,
			"type":"VEC3"
		},
		{
			"bufferView":66,
			"componentType":5126,
			"count":4,
			"type":"VEC2"
		},
		{
			"bufferView":67,
			"componentType":5123,
			"count":6,
			"type":"SCALAR"
		},
		{
			"bufferView":68,
			"componentType":5126,
			"count":4,
			"max":[
				1,
				0,
				1
			],
			"min":[
				-1,
				0,
				-1
			],
			"type":"VEC3"
		},
		{
			"bufferView":69,
			"componentType":5126,
			"count":4,
			"type":"VEC3"
		},
		{
			"bufferView":70,
			"componentType":5126,
			"count":4,
			"type":"VEC2"
		},
		{
			"bufferView":71,
			"componentType":5126,
			"count":4,
			"max":[
				1,
				0,
				1
			],
			"min":[
				-1,
				0,
				-1
			],
			"type":"VEC3"
		},
		{
			"bufferView":72,
			"componentType":5126,
			"count":4,
			"type":"VEC3"
		},
		{
			"bufferView":73,
			"componentType":5126,
			"count":4,
			"type":"VEC2"
		},
		{
			"bufferView":74,
			"componentType":5126,
			"count":4,
			"max":[
				1,
				0,
				1
			],
			"min":[
				-1,
				0,
				-1
			],
			"type":"VEC3"
		},
		{
			"bufferView":75,
			"componentType":5126,
			"count":4,
			"type":"VEC3"
		},
		{
			"bufferView":76,
			"componentType":5126,
			"count":4,
			"type":"VEC2"
		},
		{
			"bufferView":77,
			"componentType":5126,
			"count":4,
			"max":[
				1,
				0,
				1
			],
			"min":[
				-1,
				0,
				-1
			],
			"type":"VEC3"
		},
		{
			"bufferView":78,
			"componentType":5126,
			"count":4,
			"type":"VEC3"
		},
		{
			"bufferView":79,
			"componentType":5126,
			"count":4,
			"type":"VEC2"
		}
	],
	"bufferViews":[
		{
			"buffer":0,
			"byteLength":216,
			"byteOffset":0,
			"target":34962
		},
		{
			"buffer":0,
			"byteLength":216,
			"byteOffset":216,
			"target":34962
		},
		{
			"buffer":0,
			"byteLength":144,
			"byteOffset":432,
			"target":34962
		},
		{
			"buffer":0,
			"byteLength":48,
			"byteOffset":576,
			"target":34963
		},
		{
			"buffer":0,
			"byteLength":216,
			"byteOffset":624,
			"target":34962
		},
		{
			"buffer":0,
			"byteLength":216,
			"byteOffset":840,
			"target":34962
		},
		{
			"buffer":0,
			"byteLength":144,
			"byteOffset":1056,
			"target":34962
		},
		{
			"buffer":0,
			"byteLength":216,
			"byteOffset":1200,
			"target":34962
		},
		{
			"buffer":0,
			"byteLength":216,
			"byteOffset":1416,
			"target":34962
		},
		{
			"buffer":0,
			"byteLength":144,
			"byteOffset":1632,
			"target":34962
		},
		{
			"buffer":0,
			"byteLength":216,
			"byteOffset":1776,
			"target":34962
		},
		{
			"buffer":0,
			"byteLength":216,
			"byteOffset":1992,
			"target":34962
		},
		{
			"buffer":0,
			"byteLength":144,
			"byteOffset":2208,
			"target":34962
		},
		{
			"buffer":0,
			"byteLength":216,
			"byteOffset":2352,
			"target":34962
		},
		{
			"buffer":0,
			"byteLength":216,
			"byteOffset":2568,
			"target":34962
		},
		{
			"buffer":0,
			"byteLength":144,
			"byteOffset":2784,
			"target":34962
		},
		{
			"buffer":0,
			"byteLength":28428,
			"byteOffset":2928,
			"target":34962
		},
		{
			"buffer":0,
			"byteLength":28428,
			"byteOffset":31356,
			"target":34962
		},
		{
			"buffer":0,
			"byteLength":18952,
			"byteOffset":59784,
			"target":34962
		},
		{
			"buffer":0,
			"byteLength":7446,
			"byteOffset":78736,
			"target":34963
		},
		{
			"buffer":0,
			"byteLength":240,
			"byteOffset":86184,
			"target":34962
		},
		{
			"buffer":0,
			"byteLength":240,
			"byteOffset":86424,
			"target":34962
		},
		{
			"buffer":0,
			"byteLength":160,
			"byteOffset":86664,
			"target":34962
		},
		{
			"buffer":0,
			"byteLength":60,
			"byteOffset":86824,
			"target":34963
		},
		{
			"buffer":0,
			"byteLength":3888,
			"byteOffset":86884,
			"target":34962
		},
		{
			"buffer":0,
			"byteLength":3888,
			"byteOffset":90772,
			"target":34962
		},
		{
			"buffer":0,
			"byteLength":2592,
			"byteOffset":94660,
			"target":34962
		},
		{
			"buffer":0,
			"byteLength":1284,
			"byteOffset":97252,
			"target":34963
		},
		{
			"buffer":0,
			"byteLength":21912,
			"byteOffset":98536,
			"target":34962
		},
		{
			"buffer":0,
			"byteLength":21912,
			"byteOffset":120448,
			"target":34962
		},
		{
			"buffer":0,
			"byteLength":14608,
			"byteOffset":142360,
			"target":34962
		},
		{
			"buffer":0,
			"byteLength":8340,
			"byteOffset":156968,
			"target":34963
		},
		{
			"buffer":0,
			"byteLength":6600,
			"byteOffset":165308,
			"target":34962
		},
		{
			"buffer":0,
			"byteLength":6600,
			"byteOffset":171908,
			"target":34962
		},
		{
			"buffer":0,
			"byteLength":4400,
			"byteOffset":178508,
			"target":34962
		},
		{
			"buffer":0,
			"byteLength":3132,
			"byteOffset":182908,
			"target":34963
		},
		{
			"buffer":0,
			"byteLength":20292,
			"byteOffset":186040,
			"target":34962
		},
		{
			"buffer":0,
			"byteLength":20292,
			"byteOffset":206332,
			"target":34962
		},
		{
			"buffer":0,
			"byteLength":13528,
			"byteOffset":226624,
			"target":34962
		},
		{
			"buffer":0,
			"byteLength":6456,
			"byteOffset":240152,
			"target":34963
		},
		{
			"buffer":0,
			"byteLength":4608,
			"byteOffset":246608,
			"target":34962
		},
		{
			"buffer":0,
			"byteLength":4608,
			"byteOffset":251216,
			"target":34962
		},
		{
			"buffer":0,
			"byteLength":3072,
			"byteOffset":255824,
			"target":34962
		},
		{
			"buffer":0,
			"byteLength":1416,
			"byteOffset":258896,
			"target":34963
		},
		{
			"buffer":0,
			"byteLength":3888,
			"byteOffset":260312,
			"target":34962
		},
		{
			"buffer":0,
			"byteLength":3888,
			"byteOffset":264200,
			"target":34962
		},
		{
			"buffer":0,
			"byteLength":2592,
			"byteOffset":268088,
			"target":34962
		},
		{
			"buffer":0,
			"byteLength":1284,
			"byteOffset":270680,
			"target":34963
		},
		{
			"buffer":0,
			"byteLength":20292,
			"byteOffset":271964,
			"target":34962
		},
		{
			"buffer":0,
			"byteLength":20292,
			"byteOffset":292256,
			"target":34962
		},
		{
			"buffer":0,
			"byteLength":13528,
			"byteOffset":312548,
			"target":34962
		},
		{
			"buffer":0,
			"byteLength":6456,
			"byteOffset":326076,
			"target":34963
		},
		{
			"buffer":0,
			"byteLength":4608,
			"byteOffset":332532,
			"target":34962
		},
		{
			"buffer":0,
			"byteLength":4608,
			"byteOffset":337140,
			"target":34962
		},
		{
			"buffer":0,
			"byteLength":3072,
			"byteOffset":341748,
			"target":34962
		},
		{
			"buffer":0,
			"byteLength":1416,
			"byteOffset":344820,
			"target":34963
		},
		{
			"buffer":0,
			"byteLength":15264,
			"byteOffset":346236,
			"target":34962
		},
		{
			"buffer":0,
			"byteLength":15264,
			"byteOffset":361500,
			"target":34962
		},
		{
			"buffer":0,
			"byteLength":10176,
			"byteOffset":376764,
			"target":34962
		},
		{
			"buffer":0,
			"byteLength":5064,
			"byteOffset":386940,
			"target":34963
		},
		{
			"buffer":0,
			"byteLength":7920,
			"byteOffset":392004,
			"target":34962
		},
		{
			"buffer":0,
			"byteLength":7920,
			"byteOffset":399924,
			"target":34962
		},
		{
			"buffer":0,
			"byteLength":5280,
			"byteOffset":407844,
			"target":34962
		},
		{
			"buffer":0,
			"byteLength":2412,
			"byteOffset":413124,
			"target":34963
		},
		{
			"buffer":0,
			"byteLength":48,
			"byteOffset":415536,
			"target":34962
		},
		{
			"buffer":0,
			"byteLength":48,
			"byteOffset":415584,
			"target":34962
		},
		{
			"buffer":0,
			"byteLength":32,
			"byteOffset":415632,
			"target":34962
		},
		{
			"buffer":0,
			"byteLength":12,
			"byteOffset":415664,
			"target":34963
		},
		{
			"buffer":0,
			"byteLength":48,
			"byteOffset":415676,
			"target":34962
		},
		{
			"buffer":0,
			"byteLength":48,
			"byteOffset":415724,
			"target":34962
		},
		{
			"buffer":0,
			"byteLength":32,
			"byteOffset":415772,
			"target":34962
		},
		{
			"buffer":0,
			"byteLength":48,
			"byteOffset":415804,
			"target":34962
		},
		{
			"buffer":0,
			"byteLength":48,
			"byteOffset":415852,
			"target":34962
		},
		{
			"buffer":0,
			"byteLength":32,
			"byteOffset":415900,
			"target":34962
		},
		{
			"buffer":0,
			"byteLength":48,
			"byteOffset":415932,
			"target":34962
		},
		{
			"buffer":0,
			"byteLength":48,
			"byteOffset":415980,
			"target":34962
		},
		{
			"buffer":0,
			"byteLength":32,
			"byteOffset":416028,
			"target":34962
		},
		{
			"buffer":0,
			"byteLength":48,
			"byteOffset":416060,
			"target":34962
		},
		{
			"buffer":0,
			"byteLength":48,
			"byteOffset":416108,
			"target":34962
		},
		{
			"buffer":0,
			"byteLength":32,
			"byteOffset":416156,
			"target":34962
		}
	],
	"samplers":[
		{
			"magFilter":9729,
			"minFilter":9987
		}
	],
	"buffers":[
		{
			"byteLength":416188,
			"uri":"DOOR_V2.bin"
		}
	]
}
