{
	"asset":{
		"generator":"Khronos glTF Blender I/O v5.0.21",
		"version":"2.0"
	},
	"scene":0,
	"scenes":[
		{
			"name":"Scene",
			"nodes":[
				0,
				1,
				2,
				3,
				4,
				5,
				6
			]
		}
	],
	"nodes":[
		{
			"mesh":0,
			"name":"door",
			"translation":[
				0,
				0,
				0.8188779354095459
			]
		},
		{
			"mesh":1,
			"name":"handle",
			"translation":[
				0,
				0,
				0.8188779354095459
			]
		},
		{
			"mesh":2,
			"name":"tttttt.001",
			"translation":[
				0.16544103622436523,
				0,
				0.1789703369140625
			]
		},
		{
			"mesh":3,
			"name":"ttttttt.001",
			"translation":[
				-2.231295585632324,
				0,
				0.1789703369140625
			]
		},
		{
			"mesh":4,
			"name":"tttt.001",
			"translation":[
				5.33270263671875,
				0,
				0.1789703369140625
			]
		},
		{
			"mesh":5,
			"name":"ttt.001",
			"translation":[
				2.6667349338531494,
				0,
				0.1789703369140625
			]
		},
		{
			"mesh":6,
			"name":"ttttttt.002",
			"translation":[
				-4.467630386352539,
				0,
				0
			]
		}
	],
	"materials":[
		{
			"doubleSided":true,
			"name":"Baked_B_2",
			"pbrMetallicRoughness":{
				"baseColorTexture":{
					"index":0
				},
				"metallicRoughnessTexture":{
					"index":1
				}
			}
		},
		{
			"doubleSided":true,
			"name":"grey",
			"pbrMetallicRoughness":{
				"baseColorFactor":[
					0.006686442531645298,
					0.006686442531645298,
					0.006686442531645298,
					1
				],
				"metallicFactor":0.2349206507205963
			}
		},
		{
			"doubleSided":true,
			"name":"Blackhandle",
			"pbrMetallicRoughness":{
				"baseColorTexture":{
					"index":2
				},
				"metallicFactor":0.10000000149011612,
				"roughnessFactor":0.8999999761581421
			}
		},
		{
			"doubleSided":true,
			"name":"numberkey",
			"pbrMetallicRoughness":{
				"baseColorTexture":{
					"index":3
				},
				"metallicFactor":0.10000000149011612,
				"roughnessFactor":0.8999999761581421
			}
		},
		{
			"doubleSided":true,
			"name":"Baked_B_4",
			"pbrMetallicRoughness":{
				"baseColorTexture":{
					"index":4
				},
				"metallicRoughnessTexture":{
					"index":5
				}
			}
		},
		{
			"doubleSided":true,
			"name":"Baked_B_3",
			"pbrMetallicRoughness":{
				"baseColorTexture":{
					"index":6
				},
				"metallicRoughnessTexture":{
					"index":7
				}
			}
		},
		{
			"doubleSided":true,
			"name":"Baked_B_6",
			"pbrMetallicRoughness":{
				"baseColorTexture":{
					"index":8
				},
				"metallicRoughnessTexture":{
					"index":9
				}
			}
		},
		{
			"doubleSided":true,
			"name":"Baked_B_5",
			"pbrMetallicRoughness":{
				"baseColorTexture":{
					"index":10
				},
				"metallicRoughnessTexture":{
					"index":11
				}
			}
		}
	],
	"meshes":[
		{
			"name":"Mesh_80.001",
			"primitives":[
				{
					"attributes":{
						"POSITION":0,
						"NORMAL":1,
						"TEXCOORD_0":2
					},
					"indices":3,
					"material":0
				},
				{
					"attributes":{
						"POSITION":4,
						"NORMAL":5,
						"TEXCOORD_0":6
					},
					"indices":7,
					"material":1
				}
			]
		},
		{
			"name":"Mesh_88.001",
			"primitives":[
				{
					"attributes":{
						"POSITION":8,
						"NORMAL":9,
						"TEXCOORD_0":10
					},
					"indices":11,
					"material":2
				},
				{
					"attributes":{
						"POSITION":12,
						"NORMAL":13,
						"TEXCOORD_0":14
					},
					"indices":15,
					"material":3
				}
			]
		},
		{
			"name":"Plane.004",
			"primitives":[
				{
					"attributes":{
						"POSITION":16,
						"NORMAL":17,
						"TEXCOORD_0":18
					},
					"indices":19,
					"material":4
				}
			]
		},
		{
			"name":"Plane.005",
			"primitives":[
				{
					"attributes":{
						"POSITION":20,
						"NORMAL":21,
						"TEXCOORD_0":22
					},
					"indices":19,
					"material":5
				}
			]
		},
		{
			"name":"Plane.006",
			"primitives":[
				{
					"attributes":{
						"POSITION":23,
						"NORMAL":24,
						"TEXCOORD_0":25
					},
					"indices":19,
					"material":6
				}
			]
		},
		{
			"name":"Plane.007",
			"primitives":[
				{
					"attributes":{
						"POSITION":26,
						"NORMAL":27,
						"TEXCOORD_0":28
					},
					"indices":19,
					"material":7
				}
			]
		},
		{
			"name":"Plane.008",
			"primitives":[
				{
					"attributes":{
						"POSITION":29,
						"NORMAL":30,
						"TEXCOORD_0":31
					},
					"indices":19,
					"material":0
				}
			]
		}
	],
	"textures":[
		{
			"sampler":0,
			"source":0
		},
		{
			"sampler":0,
			"source":1
		},
		{
			"sampler":0,
			"source":2
		},
		{
			"sampler":0,
			"source":3
		},
		{
			"sampler":0,
			"source":4
		},
		{
			"sampler":0,
			"source":1
		},
		{
			"sampler":0,
			"source":5
		},
		{
			"sampler":0,
			"source":1
		},
		{
			"sampler":0,
			"source":6
		},
		{
			"sampler":0,
			"source":1
		},
		{
			"sampler":0,
			"source":7
		},
		{
			"sampler":0,
			"source":1
		}
	],
	"images":[
		{
			"mimeType":"image/jpeg",
			"name":"brown2",
			"uri":"brown2.jpg"
		},
		{
			"mimeType":"image/png",
			"name":"roughnes",
			"uri":"roughnes.png"
		},
		{
			"mimeType":"image/png",
			"name":"Image_1",
			"uri":"Image_1.png"
		},
		{
			"mimeType":"image/png",
			"name":"Image_4",
			"uri":"Image_4.png"
		},
		{
			"mimeType":"image/jpeg",
			"name":"brown4",
			"uri":"brown4.jpg"
		},
		{
			"mimeType":"image/jpeg",
			"name":"brown3",
			"uri":"brown3.jpg"
		},
		{
			"mimeType":"image/jpeg",
			"name":"brown6",
			"uri":"brown6.jpg"
		},
		{
			"mimeType":"image/jpeg",
			"name":"brown5",
			"uri":"brown5.jpg"
		}
	],
	"accessors":[
		{
			"bufferView":0,
			"componentType":5126,
			"count":2387,
			"max":[
				0.2169506698846817,
				2.5985000133514404,
				-8.678172167208997e-17
			],
			"min":[
				0.030934790149331093,
				0,
				-1.2208000421524048
			],
			"type":"VEC3"
		},
		{
			"bufferView":1,
			"componentType":5126,
			"count":2387,
			"type":"VEC3"
		},
		{
			"bufferView":2,
			"componentType":5126,
			"count":2387,
			"type":"VEC2"
		},
		{
			"bufferView":3,
			"componentType":5123,
			"count":3747,
			"type":"SCALAR"
		},
		{
			"bufferView":4,
			"componentType":5126,
			"count":20,
			"max":[
				0.09395584464073181,
				2.510000228881836,
				-0.19971489906311035
			],
			"min":[
				0.043932054191827774,
				0,
				-0.474059522151947
			],
			"type":"VEC3"
		},
		{
			"bufferView":5,
			"componentType":5126,
			"count":20,
			"type":"VEC3"
		},
		{
			"bufferView":6,
			"componentType":5126,
			"count":20,
			"type":"VEC2"
		},
		{
			"bufferView":7,
			"componentType":5123,
			"count":30,
			"type":"SCALAR"
		},
		{
			"bufferView":8,
			"componentType":5126,
			"count":4225,
			"max":[
				0.04115999862551689,
				1.206842064857483,
				-0.0947396531701088
			],
			"min":[
				-2.7848140434896048e-16,
				0.906842052936554,
				-0.22516866028308868
			],
			"type":"VEC3"
		},
		{
			"bufferView":9,
			"componentType":5126,
			"count":4225,
			"type":"VEC3"
		},
		{
			"bufferView":10,
			"componentType":5126,
			"count":4225,
			"type":"VEC2"
		},
		{
			"bufferView":11,
			"componentType":5123,
			"count":8748,
			"type":"SCALAR"
		},
		{
			"bufferView":12,
			"componentType":5126,
			"count":550,
			"max":[
				0.030300000682473183,
				1.1579281091690063,
				-0.10559994727373123
			],
			"min":[
				0.030300000682473183,
				1.1053413152694702,
				-0.14276951551437378
			],
			"type":"VEC3"
		},
		{
			"bufferView":13,
			"componentType":5126,
			"count":550,
			"type":"VEC3"
		},
		{
			"bufferView":14,
			"componentType":5126,
			"count":550,
			"type":"VEC2"
		},
		{
			"bufferView":15,
			"componentType":5123,
			"count":1566,
			"type":"SCALAR"
		},
		{
			"bufferView":16,
			"componentType":5126,
			"count":4,
			"max":[
				1,
				0,
				1
			],
			"min":[
				-1,
				0,
				-1
			],
			"type":"VEC3"
		},
		{
			"bufferView":17,
			"componentType":5126,
			"count":4,
			"type":"VEC3"
		},
		{
			"bufferView":18,
			"componentType":5126,
			"count":4,
			"type":"VEC2"
		},
		{
			"bufferView":19,
			"componentType":5123,
			"count":6,
			"type":"SCALAR"
		},
		{
			"bufferView":20,
			"componentType":5126,
			"count":4,
			"max":[
				1,
				0,
				1
			],
			"min":[
				-1,
				0,
				-1
			],
			"type":"VEC3"
		},
		{
			"bufferView":21,
			"componentType":5126,
			"count":4,
			"type":"VEC3"
		},
		{
			"bufferView":22,
			"componentType":5126,
			"count":4,
			"type":"VEC2"
		},
		{
			"bufferView":23,
			"componentType":5126,
			"count":4,
			"max":[
				1,
				0,
				1
			],
			"min":[
				-1,
				0,
				-1
			],
			"type":"VEC3"
		},
		{
			"bufferView":24,
			"componentType":5126,
			"count":4,
			"type":"VEC3"
		},
		{
			"bufferView":25,
			"componentType":5126,
			"count":4,
			"type":"VEC2"
		},
		{
			"bufferView":26,
			"componentType":5126,
			"count":4,
			"max":[
				1,
				0,
				1
			],
			"min":[
				-1,
				0,
				-1
			],
			"type":"VEC3"
		},
		{
			"bufferView":27,
			"componentType":5126,
			"count":4,
			"type":"VEC3"
		},
		{
			"bufferView":28,
			"componentType":5126,
			"count":4,
			"type":"VEC2"
		},
		{
			"bufferView":29,
			"componentType":5126,
			"count":4,
			"max":[
				1,
				0,
				1
			],
			"min":[
				-1,
				0,
				-1
			],
			"type":"VEC3"
		},
		{
			"bufferView":30,
			"componentType":5126,
			"count":4,
			"type":"VEC3"
		},
		{
			"bufferView":31,
			"componentType":5126,
			"count":4,
			"type":"VEC2"
		}
	],
	"bufferViews":[
		{
			"buffer":0,
			"byteLength":28644,
			"byteOffset":0,
			"target":34962
		},
		{
			"buffer":0,
			"byteLength":28644,
			"byteOffset":28644,
			"target":34962
		},
		{
			"buffer":0,
			"byteLength":19096,
			"byteOffset":57288,
			"target":34962
		},
		{
			"buffer":0,
			"byteLength":7494,
			"byteOffset":76384,
			"target":34963
		},
		{
			"buffer":0,
			"byteLength":240,
			"byteOffset":83880,
			"target":34962
		},
		{
			"buffer":0,
			"byteLength":240,
			"byteOffset":84120,
			"target":34962
		},
		{
			"buffer":0,
			"byteLength":160,
			"byteOffset":84360,
			"target":34962
		},
		{
			"buffer":0,
			"byteLength":60,
			"byteOffset":84520,
			"target":34963
		},
		{
			"buffer":0,
			"byteLength":50700,
			"byteOffset":84580,
			"target":34962
		},
		{
			"buffer":0,
			"byteLength":50700,
			"byteOffset":135280,
			"target":34962
		},
		{
			"buffer":0,
			"byteLength":33800,
			"byteOffset":185980,
			"target":34962
		},
		{
			"buffer":0,
			"byteLength":17496,
			"byteOffset":219780,
			"target":34963
		},
		{
			"buffer":0,
			"byteLength":6600,
			"byteOffset":237276,
			"target":34962
		},
		{
			"buffer":0,
			"byteLength":6600,
			"byteOffset":243876,
			"target":34962
		},
		{
			"buffer":0,
			"byteLength":4400,
			"byteOffset":250476,
			"target":34962
		},
		{
			"buffer":0,
			"byteLength":3132,
			"byteOffset":254876,
			"target":34963
		},
		{
			"buffer":0,
			"byteLength":48,
			"byteOffset":258008,
			"target":34962
		},
		{
			"buffer":0,
			"byteLength":48,
			"byteOffset":258056,
			"target":34962
		},
		{
			"buffer":0,
			"byteLength":32,
			"byteOffset":258104,
			"target":34962
		},
		{
			"buffer":0,
			"byteLength":12,
			"byteOffset":258136,
			"target":34963
		},
		{
			"buffer":0,
			"byteLength":48,
			"byteOffset":258148,
			"target":34962
		},
		{
			"buffer":0,
			"byteLength":48,
			"byteOffset":258196,
			"target":34962
		},
		{
			"buffer":0,
			"byteLength":32,
			"byteOffset":258244,
			"target":34962
		},
		{
			"buffer":0,
			"byteLength":48,
			"byteOffset":258276,
			"target":34962
		},
		{
			"buffer":0,
			"byteLength":48,
			"byteOffset":258324,
			"target":34962
		},
		{
			"buffer":0,
			"byteLength":32,
			"byteOffset":258372,
			"target":34962
		},
		{
			"buffer":0,
			"byteLength":48,
			"byteOffset":258404,
			"target":34962
		},
		{
			"buffer":0,
			"byteLength":48,
			"byteOffset":258452,
			"target":34962
		},
		{
			"buffer":0,
			"byteLength":32,
			"byteOffset":258500,
			"target":34962
		},
		{
			"buffer":0,
			"byteLength":48,
			"byteOffset":258532,
			"target":34962
		},
		{
			"buffer":0,
			"byteLength":48,
			"byteOffset":258580,
			"target":34962
		},
		{
			"buffer":0,
			"byteLength":32,
			"byteOffset":258628,
			"target":34962
		}
	],
	"samplers":[
		{
			"magFilter":9729,
			"minFilter":9987
		}
	],
	"buffers":[
		{
			"byteLength":258660,
			"uri":"DOOR_V4.bin"
		}
	]
}
